<svg width="153" height="91" viewBox="0 0 153 91" fill="none" xmlns="http://www.w3.org/2000/svg">
<path fill-rule="evenodd" clip-rule="evenodd" d="M69.3324 7.81229C71.8262 8.05274 74.6531 7.86185 77.1616 8.66033C82.7718 10.4465 84.3785 15.9103 81.0844 20.8325C77.7875 25.7585 70.32 27.9721 64.8836 25.6352C61.6482 24.2443 60.0505 21.6737 60.151 18.0372C60.1685 17.4093 60.1532 16.7815 60.1532 15.8642C59.3722 16.4723 58.8473 17.0523 58.1927 17.3395C57.608 17.5963 56.7079 17.8069 56.2626 17.5304C55.7919 17.237 55.4104 16.3101 55.4849 15.7228C55.766 13.4985 56.937 11.7169 58.8163 10.4837C60.1007 9.64014 61.3169 10.3069 61.4597 11.8531C61.5009 12.3053 61.4659 12.7643 61.4659 13.3093C63.2611 11.8419 64.9717 10.4437 67.0428 8.75043C66.0202 8.94639 65.3932 9.2133 64.808 9.1401C64.1652 9.0607 63.427 8.79942 62.9998 8.35682C62.8 8.15072 63.0664 7.16697 63.4107 6.82122C65.3684 4.85317 67.7533 3.71513 70.5717 3.7613C71.8866 3.7827 72.3234 4.81713 71.4515 5.84086C70.7393 6.67989 69.8347 7.35505 69.3324 7.81229Z" fill="white"/>
<path fill-rule="evenodd" clip-rule="evenodd" d="M86.3116 20.8426C89.9358 20.8448 91.748 23.5939 90.0696 26.9281C88.363 30.3197 85.5441 32.4268 81.5981 32.553C77.7701 32.6752 76.4552 30.1778 77.6482 26.7226C78.7662 23.4847 82.886 20.8409 86.3116 20.8426Z" fill="white"/>
<path fill-rule="evenodd" clip-rule="evenodd" d="M89.9155 18.7872C86.6451 18.7647 83.7308 15.7752 83.7393 12.4517C83.7449 9.99826 85.4747 8.18506 87.7947 8.20026C91.0335 8.22222 94.3829 11.584 94.3666 14.7982C94.3541 17.273 92.6425 18.8053 89.9155 18.7872Z" fill="white"/>
<path fill-rule="evenodd" clip-rule="evenodd" d="M68.3974 35.485C66.8787 35.065 65.3059 34.7778 63.8566 34.1882C62.4232 33.6048 61.3639 32.4527 61.3876 30.8011C61.4107 29.1889 62.5219 28.2373 63.9588 27.7463C66.7642 26.7873 69.5741 26.8712 72.2265 28.2097C73.7017 28.9547 74.8919 30.1181 74.5375 32.0112C74.1786 33.9337 72.5679 34.5621 70.9545 35.0244C70.1751 35.248 69.3105 35.177 68.4843 35.2401C68.4555 35.3217 68.4267 35.4028 68.3974 35.485Z" fill="white"/>
<path fill-rule="evenodd" clip-rule="evenodd" d="M97.7484 22.6755C101.006 22.6558 102.443 24.9803 101.057 27.601C99.8308 29.921 96.7591 31.3304 94.5937 30.5669C92.5005 29.8286 91.7194 27.9957 92.7065 26.0079C93.7861 23.8349 95.6428 22.8365 97.7484 22.6755Z" fill="white"/>
<path fill-rule="evenodd" clip-rule="evenodd" d="M74.0799 42.5363C72.7791 42.172 71.7593 42.0385 70.8868 41.6094C68.9754 40.6685 68.8501 38.5427 70.6244 37.3473C72.7593 35.9091 75.1319 35.8049 77.4564 36.7109C79.4683 37.4948 79.7353 39.7117 77.9299 40.932C76.7589 41.7226 75.2775 42.056 74.0799 42.5363Z" fill="white"/>
<path fill-rule="evenodd" clip-rule="evenodd" d="M80.3932 8.37821C78.8751 7.89844 77.1691 7.57634 75.6741 6.83023C73.9889 5.98895 74.1013 4.54232 75.7254 3.59518C77.8248 2.37155 82.8679 2.63564 84.7821 4.06988C86.1795 5.11557 86.14 6.54586 84.5366 7.25763C83.325 7.79539 81.9531 7.97333 80.3932 8.37821Z" fill="white"/>
<path fill-rule="evenodd" clip-rule="evenodd" d="M60.955 25.1841C61.0809 26.7107 60.4787 27.9281 59.0938 28.5104C57.6253 29.127 56.3934 28.3482 55.4972 27.2473C54.3487 25.8362 53.5998 24.2139 54.1388 22.3207C54.8487 19.8273 57.3059 19.0851 59.0543 20.9862C60.069 22.0887 60.6254 23.6114 61.3879 24.9442C61.244 25.0242 61.0995 25.1042 60.955 25.1841Z" fill="white"/>
<path fill-rule="evenodd" clip-rule="evenodd" d="M90.5476 1.88446C91.8445 2.5219 93.0042 2.87947 93.8671 3.59462C94.3835 4.02201 94.7954 5.13415 94.594 5.70683C94.388 6.29302 93.3558 6.97101 92.7186 6.93891C91.5905 6.8826 90.3518 6.52108 89.4228 5.8966C88.7755 5.46188 88.0977 4.2298 88.2879 3.61714C88.5058 2.91664 89.6689 2.50951 90.5476 1.88446Z" fill="white"/>
<path fill-rule="evenodd" clip-rule="evenodd" d="M57.3318 32.6678C56.7872 33.4381 56.4221 34.5007 55.8024 34.677C55.1929 34.8498 54.0952 34.3132 53.6314 33.7462C53.0399 33.0226 52.6014 31.9555 52.6025 31.0376C52.6037 30.3033 53.2041 29.2869 53.839 28.9361C54.2725 28.6962 55.4508 29.1923 55.8871 29.7053C56.5282 30.4604 56.8024 31.5236 57.3318 32.6678Z" fill="white"/>
<path fill-rule="evenodd" clip-rule="evenodd" d="M73.4823 2.6897C72.8593 2.29271 72.2408 1.89797 71.6211 1.50436C72.2408 1.04317 72.8012 0.353929 73.493 0.178803C74.4282 -0.0577022 75.4908 -0.0441873 76.4497 0.12925C77.4367 0.307755 77.5993 1.06964 76.6907 1.56574C75.7894 2.05789 74.7335 2.2668 73.4823 2.6897Z" fill="white"/>
<path fill-rule="evenodd" clip-rule="evenodd" d="M53.9264 16.5996C53.8666 18.3981 52.6419 20.2125 51.704 20.0908C51.3433 20.0441 50.8168 19.3864 50.7942 18.9838C50.7197 17.6503 52.1865 15.6507 53.1002 15.7938C53.489 15.8551 53.7921 16.4599 53.9264 16.5996Z" fill="white"/>
<path fill-rule="evenodd" clip-rule="evenodd" d="M58.8164 9.1215C58.5049 8.26727 58.2351 7.86296 58.2571 7.47554C58.2729 7.19399 58.6223 6.82121 58.9146 6.6855C59.9468 6.20686 61.0168 5.81325 62.0727 5.38641C62.137 5.70457 62.3633 6.20292 62.2403 6.31272C61.2544 7.19624 60.2013 8.00542 58.8164 9.1215Z" fill="white"/>
<path d="M0 75.4266V52.707H7.84479C12.1661 52.707 14.5594 55.3272 14.5594 58.5776C14.5594 60.5676 13.4292 62.5909 11.5013 63.5527C14.4929 64.0502 16.1217 66.3056 16.1217 68.8927C16.1217 72.6074 13.396 75.4266 9.54006 75.4266H0ZM7.94451 54.3322H1.76175V63.022H7.81155C11.2021 63.022 12.7976 61.032 12.7976 58.6771C12.7976 56.3222 11.1356 54.3322 7.94451 54.3322ZM9.44034 64.6472H1.76175V73.8014H9.30737C12.7976 73.8014 14.3599 71.5792 14.3599 69.0253C14.3599 66.6704 12.7312 64.6472 9.44034 64.6472ZM26.3266 58.5776C31.1465 58.5776 34.8694 62.2923 34.8694 67.1016C34.8694 71.9441 31.1465 75.6588 26.3266 75.6588C21.4734 75.6588 17.7505 71.9441 17.7505 67.1016C17.7505 62.2923 21.4734 58.5776 26.3266 58.5776ZM26.3266 60.1365C22.3377 60.1365 19.3793 63.1879 19.3793 67.1348C19.3793 71.0485 22.3377 74.0999 26.3266 74.0999C30.2822 74.0999 33.2406 71.0485 33.2406 67.1348C33.2406 63.1879 30.2822 60.1365 26.3266 60.1365ZM45.1075 58.5776C49.9274 58.5776 53.6504 62.2923 53.6504 67.1016C53.6504 71.9441 49.9274 75.6588 45.1075 75.6588C40.2544 75.6588 36.5314 71.9441 36.5314 67.1016C36.5314 62.2923 40.2544 58.5776 45.1075 58.5776ZM45.1075 60.1365C41.1186 60.1365 38.1602 63.1879 38.1602 67.1348C38.1602 71.0485 41.1186 74.0999 45.1075 74.0999C49.0632 74.0999 52.0216 71.0485 52.0216 67.1348C52.0216 63.1879 49.0632 60.1365 45.1075 60.1365ZM57.4398 66.9358L64.9189 58.8429H66.9134L59.1683 67.168L68.376 75.4266H66.0823L57.4398 67.6655V75.4266H55.811V52.707H57.4398V66.9358ZM89.6832 75.4266L83.8328 55.4267L78.0157 75.4266H76.121L69.7056 52.707H71.5006L77.1515 72.9722L83.0018 52.707H84.8301L90.6804 72.9391L96.3313 52.707H98.0931L91.5779 75.4266H89.6832ZM108.165 58.5776C112.985 58.5776 116.708 62.2923 116.708 67.1016C116.708 71.9441 112.985 75.6588 108.165 75.6588C103.312 75.6588 99.5889 71.9441 99.5889 67.1016C99.5889 62.2923 103.312 58.5776 108.165 58.5776ZM108.165 60.1365C104.176 60.1365 101.218 63.1879 101.218 67.1348C101.218 71.0485 104.176 74.0999 108.165 74.0999C112.121 74.0999 115.079 71.0485 115.079 67.1348C115.079 63.1879 112.121 60.1365 108.165 60.1365ZM126.048 58.5776V60.3686C122.857 60.3686 120.497 62.7899 120.497 66.4051V75.4266H118.868V58.8429H120.497V61.9275C121.129 60.6671 122.924 58.5776 126.048 58.5776ZM129.838 58.8429V61.2642C130.636 59.9043 132.331 58.5776 135.057 58.5776C137.616 58.5776 139.577 59.838 140.508 61.9275C141.406 60.236 143.234 58.5776 146.325 58.5776C149.982 58.5776 152.375 61.0983 152.375 65.0121V75.4266H150.746V65.1447C150.746 61.9938 149.018 60.1365 146.159 60.1365C143.167 60.1365 141.106 62.0602 141.106 65.3437V75.4266H139.478V65.1447C139.478 61.9938 137.749 60.1365 134.89 60.1365C131.832 60.1365 129.838 62.1597 129.838 65.5759V75.4266H128.209V58.8429H129.838Z" fill="white"/>
<path d="M57.0999 90.7269C56.145 90.7269 55.3628 89.9363 55.3628 88.9734V83.2466C55.3628 83.1756 55.4237 83.1148 55.4949 83.1148H56.3177V89.0646C56.3177 89.5005 56.6732 89.8552 57.0999 89.8552H60.2693C60.3404 89.8552 60.4013 89.916 60.4013 89.987V90.7269H57.0999ZM61.5594 90.7269C61.4883 90.7269 61.4273 90.6661 61.4273 90.5951V83.1148H62.2501C62.3213 83.1148 62.3822 83.1756 62.3822 83.2466V90.7269H61.5594ZM64.3834 90.7269C64.0583 90.7269 63.7942 90.4634 63.7942 90.139V83.6824C63.7942 83.3682 64.0482 83.1148 64.3631 83.1148H64.5256H67.6137C68.5686 83.1148 69.3407 83.8851 69.3407 84.8379V85.6083C69.3407 86.0948 68.9546 86.7435 68.4061 86.855C68.9546 86.9969 69.3407 87.6152 69.3407 88.1017V88.9937C69.3407 89.9464 68.5686 90.7269 67.6137 90.7269H64.3834ZM68.3858 89.0747V88.0612C68.3858 87.6354 68.0404 87.2908 67.6137 87.2908H64.7491V89.6626C64.7491 89.764 64.8304 89.8552 64.9421 89.8552H67.6137C68.0404 89.8552 68.3858 89.5005 68.3858 89.0747ZM64.7491 84.1791V86.4191H67.6137C68.0404 86.4191 68.3858 86.0745 68.3858 85.6488V84.7568C68.3858 84.3311 68.0404 83.9865 67.6137 83.9865H64.9421C64.8304 83.9865 64.7491 84.0676 64.7491 84.1791ZM71.4638 87.078H71.4434V90.5951C71.4434 90.6661 71.3825 90.7269 71.3114 90.7269H70.4885V83.7027C70.4885 83.3783 70.7527 83.1148 71.0777 83.1148H74.2674C75.2223 83.1148 75.9944 83.7128 75.9944 84.7467V85.7299C75.9944 86.6218 75.3544 87.1084 74.6128 87.301L76.2382 90.7269H75.3544C75.2833 90.7269 75.202 90.6661 75.1715 90.6053L73.6275 87.3516H72.3272H72.0326C71.7482 87.3516 71.5349 87.2705 71.4638 87.078ZM71.6364 86.4799H74.2674C74.6941 86.4799 75.0395 86.1353 75.0395 85.7096V84.7568C75.0395 84.3311 74.6941 83.9865 74.2674 83.9865H71.6364C71.5247 83.9865 71.4434 84.0777 71.4434 84.1791V86.2874C71.4434 86.3989 71.5349 86.4799 71.6364 86.4799ZM81.1853 83.1858L83.8468 90.7269H83.0138C82.9223 90.7269 82.8512 90.6661 82.8309 90.5951L82.1503 88.6389H78.2698L77.5892 90.5951C77.5689 90.6661 77.4876 90.7269 77.4064 90.7269H76.5734L79.052 83.6824C79.1739 83.3479 79.4888 83.1148 79.8545 83.1148H81.0634C81.1142 83.1148 81.165 83.1452 81.1853 83.1858ZM78.5746 87.7672H81.8456L80.525 83.9865H80.0272C79.946 83.9865 79.8748 84.0372 79.8444 84.1183L78.5746 87.7672ZM85.6143 87.078H85.594V90.5951C85.594 90.6661 85.533 90.7269 85.4619 90.7269H84.6391V83.7027C84.6391 83.3783 84.9032 83.1148 85.2283 83.1148H88.418C89.3729 83.1148 90.1449 83.7128 90.1449 84.7467V85.7299C90.1449 86.6218 89.5049 87.1084 88.7634 87.301L90.3887 90.7269H89.5049C89.4338 90.7269 89.3526 90.6661 89.3221 90.6053L87.778 87.3516H86.4778H86.1832C85.8987 87.3516 85.6854 87.2705 85.6143 87.078ZM85.787 86.4799H88.418C88.8447 86.4799 89.19 86.1353 89.19 85.7096V84.7568C89.19 84.3311 88.8447 83.9865 88.418 83.9865H85.787C85.6753 83.9865 85.594 84.0777 85.594 84.1791V86.2874C85.594 86.3989 85.6854 86.4799 85.787 86.4799ZM96.4025 83.1148H97.2964L95.7422 87.0577C95.6304 87.3618 95.3866 87.6354 94.9905 87.6354H94.5333V90.5951C94.5333 90.6661 94.4724 90.7269 94.4013 90.7269H93.5683V87.6354L93.162 87.6253C92.7251 87.6253 92.4712 87.3618 92.3594 87.0577L90.8052 83.1148H91.6991C91.7703 83.1148 91.8515 83.1756 91.882 83.2364L93.1518 86.5509C93.1924 86.6523 93.3143 86.7333 93.4159 86.7333H94.6857C94.7873 86.7333 94.9092 86.6523 94.9498 86.5509L96.2196 83.2364C96.2501 83.1756 96.3313 83.1148 96.4025 83.1148Z" fill="white"/>
</svg>
